<svg xmlns="http://www.w3.org/2000/svg" xmlns:xlink="http://www.w3.org/1999/xlink" viewBox="0,0,256,256" width="48px" height="48px"><g fill="#3c43db" fill-rule="nonzero" stroke="none" stroke-width="1" stroke-linecap="butt" stroke-linejoin="miter" stroke-miterlimit="10" stroke-dasharray="" stroke-dashoffset="0" font-family="none" font-weight="none" font-size="none" text-anchor="none" style="mix-blend-mode: normal"><g transform="scale(4,4)"><path d="M29.875,10.625c-4.014,0 -7.575,2.29792 -9.375,5.66992v12.86523l5.00195,3.0625l0.18359,-12.7793l10.24609,-6.91016c-1.746,-1.22 -3.83564,-1.9082 -6.05664,-1.9082zM40.875,14c-0.714,0 -1.41252,0.09533 -2.10352,0.23633l-10.11133,6.81836l-0.07422,5.21289l10.11523,-6.79102l12.53516,7.44336c0.167,-0.753 0.26367,-1.52092 0.26367,-2.29492c0,-5.858 -4.767,-10.625 -10.625,-10.625zM17.5,18.97461c-4.337,1.339 -7.5,5.37939 -7.5,10.15039c0,1.514 0.32016,2.97273 0.91016,4.30273l13.30859,7.57813l4.91016,-3.04297l-11.62891,-7.12305zM38.79883,23.02344l-3.94141,2.64844l11.05859,6.94336l1.39844,12.76367c3.802,-1.62 6.43555,-5.36891 6.43555,-9.75391c0,-1.494 -0.31744,-2.93481 -0.89844,-4.25781zM32.13086,27.50195l-3.59766,2.41602l-0.05664,4.12695l3.50781,2.15039l3.76953,-2.33398l-0.09961,-4.14648zM38.70117,31.62891l0.31836,13.46484l-10.91211,6.46094c1.882,1.558 4.26258,2.44531 6.76758,2.44531c4.295,0 8.01259,-2.52237 9.68359,-6.23437l-1.4668,-13.38086zM35.83594,37.33789l-11.55469,7.15625l-10.99805,-6.26367c-0.182,0.784 -0.2832,1.58653 -0.2832,2.39453c0,5.581 4.32873,10.16103 9.80273,10.58203l13.17578,-7.80078z"></path></g></g></svg>